<svg width="1024" height="1024" viewBox="0 0 1024 1024" fill="none" xmlns="http://www.w3.org/2000/svg">
<path d="M815 85C836.539 85 854 102.461 854 124V899C854 920.539 836.539 938 815 938H209C187.461 938 170 920.539 170 899V124C170 102.461 187.461 85 209 85H488.481C483.221 90.6293 480 98.1878 480 106.5C480 123.897 494.103 138 511.5 138C528.897 138 543 123.897 543 106.5C543 98.1878 539.779 90.6293 534.519 85H815Z" fill="url(#paint0_linear_1_120)"/>
<rect x="212" y="127" width="597" height="768" rx="23" fill="#F3F3F3"/>
<path d="M292.625 572.906L290.594 583.531H299.438V587.5H289.812L287.156 601H282.938L285.594 587.5H276.062L273.5 601H269.344L271.812 587.5H263.625V583.531H272.594L274.688 572.906H266V569H275.406L278 555.312H282.281L279.688 569H289.281L291.875 555.312H296L293.406 569H301.688V572.906H292.625ZM276.812 583.531H286.344L288.406 572.906H278.875L276.812 583.531ZM360.875 601H355.562V579.469H331.562V601H326.25V555.312H331.562V574.781H355.562V555.312H360.875V601ZM389.656 601H384.594V568.625C384.594 567.396 384.594 566.344 384.594 565.469C384.615 564.573 384.635 563.76 384.656 563.031C384.698 562.281 384.75 561.521 384.812 560.75C384.167 561.417 383.562 561.99 383 562.469C382.438 562.927 381.74 563.5 380.906 564.188L375.688 568.375L372.969 564.844L385.344 555.312H389.656V601ZM461.312 601H456V579.469H432V601H426.688V555.312H432V574.781H456V555.312H461.312V601ZM486.281 566.125C489.198 566.125 491.698 566.771 493.781 568.062C495.865 569.354 497.458 571.167 498.562 573.5C499.667 575.812 500.219 578.521 500.219 581.625V584.844H476.562C476.625 588.865 477.625 591.927 479.562 594.031C481.5 596.135 484.229 597.188 487.75 597.188C489.917 597.188 491.833 596.99 493.5 596.594C495.167 596.198 496.896 595.615 498.688 594.844V599.406C496.958 600.177 495.24 600.74 493.531 601.094C491.844 601.448 489.844 601.625 487.531 601.625C484.24 601.625 481.365 600.958 478.906 599.625C476.469 598.271 474.573 596.292 473.219 593.688C471.865 591.083 471.188 587.896 471.188 584.125C471.188 580.438 471.802 577.25 473.031 574.562C474.281 571.854 476.031 569.771 478.281 568.312C480.552 566.854 483.219 566.125 486.281 566.125ZM486.219 570.375C483.448 570.375 481.24 571.281 479.594 573.094C477.948 574.906 476.969 577.438 476.656 580.688H494.781C494.76 578.646 494.438 576.854 493.812 575.312C493.208 573.75 492.281 572.542 491.031 571.688C489.781 570.812 488.177 570.375 486.219 570.375ZM521.844 566.188C525.927 566.188 528.958 567.104 530.938 568.938C532.917 570.771 533.906 573.698 533.906 577.719V601H530.125L529.125 595.938H528.875C527.917 597.188 526.917 598.24 525.875 599.094C524.833 599.927 523.625 600.562 522.25 601C520.896 601.417 519.229 601.625 517.25 601.625C515.167 601.625 513.312 601.26 511.688 600.531C510.083 599.802 508.812 598.698 507.875 597.219C506.958 595.74 506.5 593.865 506.5 591.594C506.5 588.177 507.854 585.552 510.562 583.719C513.271 581.885 517.396 580.885 522.938 580.719L528.844 580.469V578.375C528.844 575.417 528.208 573.344 526.938 572.156C525.667 570.969 523.875 570.375 521.562 570.375C519.771 570.375 518.062 570.635 516.438 571.156C514.812 571.677 513.271 572.292 511.812 573L510.219 569.062C511.76 568.271 513.531 567.594 515.531 567.031C517.531 566.469 519.635 566.188 521.844 566.188ZM528.781 584.125L523.562 584.344C519.292 584.51 516.281 585.208 514.531 586.438C512.781 587.667 511.906 589.406 511.906 591.656C511.906 593.615 512.5 595.062 513.688 596C514.875 596.938 516.448 597.406 518.406 597.406C521.448 597.406 523.938 596.562 525.875 594.875C527.812 593.188 528.781 590.656 528.781 587.281V584.125ZM556.781 601.625C552.448 601.625 549.01 600.146 546.469 597.188C543.948 594.229 542.688 589.833 542.688 584C542.688 578.104 543.979 573.656 546.562 570.656C549.146 567.635 552.583 566.125 556.875 566.125C558.688 566.125 560.271 566.365 561.625 566.844C562.979 567.323 564.146 567.969 565.125 568.781C566.104 569.573 566.927 570.479 567.594 571.5H567.969C567.885 570.854 567.802 569.969 567.719 568.844C567.635 567.719 567.594 566.802 567.594 566.094V552.375H572.781V601H568.594L567.812 596.125H567.594C566.948 597.146 566.125 598.073 565.125 598.906C564.146 599.74 562.969 600.406 561.594 600.906C560.24 601.385 558.635 601.625 556.781 601.625ZM557.594 597.312C561.26 597.312 563.854 596.271 565.375 594.188C566.896 592.104 567.656 589.01 567.656 584.906V583.969C567.656 579.615 566.927 576.271 565.469 573.938C564.031 571.604 561.406 570.438 557.594 570.438C554.406 570.438 552.021 571.667 550.438 574.125C548.854 576.562 548.062 579.896 548.062 584.125C548.062 588.333 548.844 591.583 550.406 593.875C551.99 596.167 554.385 597.312 557.594 597.312ZM596.969 566.125C599.885 566.125 602.385 566.771 604.469 568.062C606.552 569.354 608.146 571.167 609.25 573.5C610.354 575.812 610.906 578.521 610.906 581.625V584.844H587.25C587.312 588.865 588.312 591.927 590.25 594.031C592.188 596.135 594.917 597.188 598.438 597.188C600.604 597.188 602.521 596.99 604.188 596.594C605.854 596.198 607.583 595.615 609.375 594.844V599.406C607.646 600.177 605.927 600.74 604.219 601.094C602.531 601.448 600.531 601.625 598.219 601.625C594.927 601.625 592.052 600.958 589.594 599.625C587.156 598.271 585.26 596.292 583.906 593.688C582.552 591.083 581.875 587.896 581.875 584.125C581.875 580.438 582.49 577.25 583.719 574.562C584.969 571.854 586.719 569.771 588.969 568.312C591.24 566.854 593.906 566.125 596.969 566.125ZM596.906 570.375C594.135 570.375 591.927 571.281 590.281 573.094C588.635 574.906 587.656 577.438 587.344 580.688H605.469C605.448 578.646 605.125 576.854 604.5 575.312C603.896 573.75 602.969 572.542 601.719 571.688C600.469 570.812 598.865 570.375 596.906 570.375ZM635.281 566.125C635.969 566.125 636.688 566.167 637.438 566.25C638.188 566.312 638.854 566.406 639.438 566.531L638.781 571.344C638.219 571.198 637.594 571.083 636.906 571C636.219 570.917 635.573 570.875 634.969 570.875C633.594 570.875 632.292 571.156 631.062 571.719C629.854 572.26 628.792 573.052 627.875 574.094C626.958 575.115 626.24 576.354 625.719 577.812C625.198 579.25 624.938 580.854 624.938 582.625V601H619.719V566.75H624.031L624.594 573.062H624.812C625.521 571.792 626.375 570.635 627.375 569.594C628.375 568.531 629.531 567.688 630.844 567.062C632.177 566.438 633.656 566.125 635.281 566.125Z" fill="#7A8385"/>
<path d="M283.5 639.375L282.219 650.875L293.875 647.625L294.906 655.5L284.281 656.25L291.25 665.531L284.156 669.312L279.281 659.531L275 669.25L267.625 665.531L274.531 656.25L263.969 655.438L265.188 647.625L276.594 650.875L275.312 639.375H283.5ZM318.375 639.375L317.094 650.875L328.75 647.625L329.781 655.5L319.156 656.25L326.125 665.531L319.031 669.312L314.156 659.531L309.875 669.25L302.5 665.531L309.406 656.25L298.844 655.438L300.062 647.625L311.469 650.875L310.188 639.375H318.375ZM346.281 639.375V650.688C346.281 652 346.24 653.302 346.156 654.594C346.094 655.885 346.01 656.885 345.906 657.594H346.281C347.198 656.156 348.448 654.938 350.031 653.938C351.615 652.917 353.667 652.406 356.188 652.406C360.104 652.406 363.281 653.938 365.719 657C368.156 660.062 369.375 664.552 369.375 670.469C369.375 674.448 368.812 677.792 367.688 680.5C366.562 683.188 364.99 685.219 362.969 686.594C360.948 687.948 358.604 688.625 355.938 688.625C353.375 688.625 351.354 688.167 349.875 687.25C348.396 686.333 347.198 685.302 346.281 684.156H345.625L344.031 688H336.75V639.375H346.281ZM353.125 660.031C351.458 660.031 350.135 660.375 349.156 661.062C348.177 661.75 347.458 662.781 347 664.156C346.562 665.531 346.323 667.271 346.281 669.375V670.406C346.281 673.802 346.781 676.406 347.781 678.219C348.781 680.01 350.604 680.906 353.25 680.906C355.208 680.906 356.76 680 357.906 678.188C359.073 676.375 359.656 673.76 359.656 670.344C359.656 666.927 359.073 664.354 357.906 662.625C356.74 660.896 355.146 660.031 353.125 660.031ZM409 670.469C409 673.385 408.604 675.969 407.812 678.219C407.042 680.469 405.906 682.375 404.406 683.938C402.927 685.479 401.135 686.646 399.031 687.438C396.948 688.229 394.594 688.625 391.969 688.625C389.51 688.625 387.25 688.229 385.188 687.438C383.146 686.646 381.365 685.479 379.844 683.938C378.344 682.375 377.177 680.469 376.344 678.219C375.531 675.969 375.125 673.385 375.125 670.469C375.125 666.594 375.812 663.312 377.188 660.625C378.562 657.938 380.521 655.896 383.062 654.5C385.604 653.104 388.635 652.406 392.156 652.406C395.427 652.406 398.323 653.104 400.844 654.5C403.385 655.896 405.375 657.938 406.812 660.625C408.271 663.312 409 666.594 409 670.469ZM384.844 670.469C384.844 672.76 385.094 674.688 385.594 676.25C386.094 677.812 386.875 678.99 387.938 679.781C389 680.573 390.385 680.969 392.094 680.969C393.781 680.969 395.146 680.573 396.188 679.781C397.25 678.99 398.021 677.812 398.5 676.25C399 674.688 399.25 672.76 399.25 670.469C399.25 668.156 399 666.24 398.5 664.719C398.021 663.177 397.25 662.021 396.188 661.25C395.125 660.479 393.74 660.094 392.031 660.094C389.51 660.094 387.677 660.958 386.531 662.688C385.406 664.417 384.844 667.01 384.844 670.469ZM426.406 688H416.875V639.375H426.406V688ZM447.5 688.625C443.604 688.625 440.427 687.104 437.969 684.062C435.531 681 434.312 676.51 434.312 670.594C434.312 664.615 435.552 660.094 438.031 657.031C440.51 653.948 443.75 652.406 447.75 652.406C449.417 652.406 450.885 652.635 452.156 653.094C453.427 653.552 454.521 654.167 455.438 654.938C456.375 655.708 457.167 656.573 457.812 657.531H458.125C458 656.865 457.844 655.885 457.656 654.594C457.49 653.281 457.406 651.938 457.406 650.562V639.375H466.969V688H459.656L457.812 683.469H457.406C456.802 684.427 456.042 685.302 455.125 686.094C454.229 686.865 453.156 687.479 451.906 687.938C450.656 688.396 449.188 688.625 447.5 688.625ZM450.844 681.031C453.448 681.031 455.281 680.26 456.344 678.719C457.427 677.156 458 674.812 458.062 671.688V670.656C458.062 667.26 457.542 664.667 456.5 662.875C455.458 661.062 453.521 660.156 450.688 660.156C448.583 660.156 446.938 661.062 445.75 662.875C444.562 664.688 443.969 667.302 443.969 670.719C443.969 674.135 444.562 676.708 445.75 678.438C446.958 680.167 448.656 681.031 450.844 681.031ZM508.281 681.031C509.323 681.031 510.333 680.927 511.312 680.719C512.312 680.51 513.302 680.25 514.281 679.938V687.031C513.26 687.49 511.99 687.865 510.469 688.156C508.969 688.469 507.323 688.625 505.531 688.625C503.448 688.625 501.573 688.292 499.906 687.625C498.26 686.938 496.958 685.76 496 684.094C495.062 682.406 494.594 680.062 494.594 677.062V660.219H490.031V656.188L495.281 653L498.031 645.625H504.125V653.062H513.906V660.219H504.125V677.062C504.125 678.396 504.5 679.396 505.25 680.062C506.021 680.708 507.031 681.031 508.281 681.031ZM535.781 652.406C539.01 652.406 541.792 653.031 544.125 654.281C546.458 655.51 548.26 657.302 549.531 659.656C550.802 662.01 551.438 664.885 551.438 668.281V672.906H528.906C529.01 675.594 529.812 677.708 531.312 679.25C532.833 680.771 534.938 681.531 537.625 681.531C539.854 681.531 541.896 681.302 543.75 680.844C545.604 680.385 547.51 679.698 549.469 678.781V686.156C547.74 687.01 545.927 687.635 544.031 688.031C542.156 688.427 539.875 688.625 537.188 688.625C533.688 688.625 530.583 687.979 527.875 686.688C525.188 685.396 523.073 683.427 521.531 680.781C520.01 678.135 519.25 674.802 519.25 670.781C519.25 666.698 519.938 663.302 521.312 660.594C522.708 657.865 524.646 655.823 527.125 654.469C529.604 653.094 532.49 652.406 535.781 652.406ZM535.844 659.188C533.99 659.188 532.448 659.781 531.219 660.969C530.01 662.156 529.312 664.021 529.125 666.562H542.5C542.479 665.146 542.219 663.885 541.719 662.781C541.24 661.677 540.51 660.802 539.531 660.156C538.573 659.51 537.344 659.188 535.844 659.188ZM566.344 670.156L555.094 653.062H565.906L572.688 664.188L579.531 653.062H590.344L578.969 670.156L590.875 688H580.031L572.688 676.031L565.312 688H554.5L566.344 670.156ZM610.906 681.031C611.948 681.031 612.958 680.927 613.938 680.719C614.938 680.51 615.927 680.25 616.906 679.938V687.031C615.885 687.49 614.615 687.865 613.094 688.156C611.594 688.469 609.948 688.625 608.156 688.625C606.073 688.625 604.198 688.292 602.531 687.625C600.885 686.938 599.583 685.76 598.625 684.094C597.688 682.406 597.219 680.062 597.219 677.062V660.219H592.656V656.188L597.906 653L600.656 645.625H606.75V653.062H616.531V660.219H606.75V677.062C606.75 678.396 607.125 679.396 607.875 680.062C608.646 680.708 609.656 681.031 610.906 681.031ZM640.5 639.375L639.219 650.875L650.875 647.625L651.906 655.5L641.281 656.25L648.25 665.531L641.156 669.312L636.281 659.531L632 669.25L624.625 665.531L631.531 656.25L620.969 655.438L622.188 647.625L633.594 650.875L632.312 639.375H640.5ZM675.375 639.375L674.094 650.875L685.75 647.625L686.781 655.5L676.156 656.25L683.125 665.531L676.031 669.312L671.156 659.531L666.875 669.25L659.5 665.531L666.406 656.25L655.844 655.438L657.062 647.625L668.469 650.875L667.188 639.375H675.375Z" fill="black"/>
<path d="M256.188 784.969L257.062 780.875H282.281L281.406 784.969H256.188ZM288.938 775L296.219 740.75H301.438L294.156 775H288.938ZM300.594 734.75C299.76 734.75 299.062 734.51 298.5 734.031C297.958 733.531 297.688 732.833 297.688 731.938C297.688 731.25 297.823 730.604 298.094 730C298.385 729.396 298.792 728.917 299.312 728.562C299.854 728.188 300.51 728 301.281 728C302.198 728 302.885 728.24 303.344 728.719C303.802 729.198 304.031 729.865 304.031 730.719C304.031 731.948 303.677 732.927 302.969 733.656C302.26 734.385 301.469 734.75 300.594 734.75ZM314.875 775.625C312.604 775.625 310.708 775.083 309.188 774C307.688 772.896 306.938 771.01 306.938 768.344C306.938 767.698 306.979 767 307.062 766.25C307.146 765.479 307.281 764.688 307.469 763.875L311.5 744.719H306.219L306.719 742.312L312.406 740.125L316.156 732.875H319.25L317.531 740.75H326.344L325.531 744.719H316.75L312.688 763.938C312.542 764.521 312.406 765.146 312.281 765.812C312.177 766.479 312.125 767.115 312.125 767.719C312.125 768.76 312.396 769.635 312.938 770.344C313.479 771.031 314.385 771.375 315.656 771.375C316.448 771.375 317.198 771.302 317.906 771.156C318.635 771.01 319.406 770.802 320.219 770.531V774.531C319.698 774.781 318.906 775.021 317.844 775.25C316.802 775.5 315.812 775.625 314.875 775.625ZM336.812 775.625C334.958 775.625 333.333 775.177 331.938 774.281C330.542 773.385 329.458 772.062 328.688 770.312C327.917 768.562 327.531 766.427 327.531 763.906C327.531 761.385 327.792 758.958 328.312 756.625C328.854 754.292 329.615 752.125 330.594 750.125C331.573 748.125 332.75 746.375 334.125 744.875C335.521 743.375 337.083 742.208 338.812 741.375C340.542 740.542 342.406 740.125 344.406 740.125C345.948 740.125 347.281 740.417 348.406 741C349.552 741.583 350.5 742.354 351.25 743.312C352.021 744.25 352.625 745.25 353.062 746.312H353.375L355.375 740.75H359.344L352.094 775H347.938L348.875 768.375H348.625C347.688 769.625 346.615 770.802 345.406 771.906C344.198 773.01 342.875 773.906 341.438 774.594C340 775.281 338.458 775.625 336.812 775.625ZM338.5 771.312C340.104 771.312 341.688 770.729 343.25 769.562C344.833 768.375 346.25 766.781 347.5 764.781C348.771 762.76 349.74 760.49 350.406 757.969C350.74 756.74 350.958 755.615 351.062 754.594C351.188 753.552 351.25 752.583 351.25 751.688C351.25 749.542 350.677 747.812 349.531 746.5C348.406 745.167 346.865 744.5 344.906 744.5C343.51 744.5 342.198 744.854 340.969 745.562C339.74 746.25 338.625 747.219 337.625 748.469C336.646 749.698 335.802 751.135 335.094 752.781C334.385 754.406 333.833 756.177 333.438 758.094C333.062 760.01 332.875 761.979 332.875 764C332.875 766.396 333.365 768.219 334.344 769.469C335.323 770.698 336.708 771.312 338.5 771.312ZM362.375 775L372.75 726.375H377.938L367.594 775H362.375ZM378.625 775L385.906 740.75H391.125L383.844 775H378.625ZM390.281 734.75C389.448 734.75 388.75 734.51 388.188 734.031C387.646 733.531 387.375 732.833 387.375 731.938C387.375 731.25 387.51 730.604 387.781 730C388.073 729.396 388.479 728.917 389 728.562C389.542 728.188 390.198 728 390.969 728C391.885 728 392.573 728.24 393.031 728.719C393.49 729.198 393.719 729.865 393.719 730.719C393.719 731.948 393.365 732.927 392.656 733.656C391.948 734.385 391.156 734.75 390.281 734.75ZM408.812 775.625C406.271 775.625 404.042 775.146 402.125 774.188C400.229 773.208 398.75 771.771 397.688 769.875C396.646 767.979 396.125 765.625 396.125 762.812C396.125 760.375 396.385 758.031 396.906 755.781C397.448 753.531 398.229 751.458 399.25 749.562C400.271 747.667 401.51 746.01 402.969 744.594C404.427 743.177 406.083 742.083 407.938 741.312C409.812 740.521 411.854 740.125 414.062 740.125C415.542 740.125 417.01 740.271 418.469 740.562C419.948 740.833 421.281 741.229 422.469 741.75L421 746.125C420.125 745.708 419.094 745.333 417.906 745C416.719 744.667 415.448 744.5 414.094 744.5C412.198 744.5 410.469 744.979 408.906 745.938C407.365 746.896 406.031 748.229 404.906 749.938C403.802 751.625 402.948 753.562 402.344 755.75C401.74 757.938 401.438 760.271 401.438 762.75C401.438 764.521 401.75 766.052 402.375 767.344C403 768.615 403.896 769.594 405.062 770.281C406.25 770.969 407.667 771.312 409.312 771.312C410.833 771.312 412.26 771.104 413.594 770.688C414.948 770.271 416.271 769.771 417.562 769.188V773.625C416.417 774.208 415.104 774.688 413.625 775.062C412.167 775.438 410.562 775.625 408.812 775.625ZM450.188 775.625C447.917 775.625 446.021 775.083 444.5 774C443 772.896 442.25 771.01 442.25 768.344C442.25 767.698 442.292 767 442.375 766.25C442.458 765.479 442.594 764.688 442.781 763.875L446.812 744.719H441.531L442.031 742.312L447.719 740.125L451.469 732.875H454.562L452.844 740.75H461.656L460.844 744.719H452.062L448 763.938C447.854 764.521 447.719 765.146 447.594 765.812C447.49 766.479 447.438 767.115 447.438 767.719C447.438 768.76 447.708 769.635 448.25 770.344C448.792 771.031 449.698 771.375 450.969 771.375C451.76 771.375 452.51 771.302 453.219 771.156C453.948 771.01 454.719 770.802 455.531 770.531V774.531C455.01 774.781 454.219 775.021 453.156 775.25C452.115 775.5 451.125 775.625 450.188 775.625ZM475.281 775.625C472.719 775.625 470.51 775.115 468.656 774.094C466.802 773.052 465.375 771.573 464.375 769.656C463.396 767.719 462.906 765.406 462.906 762.719C462.906 759.948 463.302 757.229 464.094 754.562C464.906 751.875 466.062 749.448 467.562 747.281C469.062 745.094 470.865 743.354 472.969 742.062C475.094 740.771 477.469 740.125 480.094 740.125C483.24 740.125 485.625 740.833 487.25 742.25C488.875 743.646 489.688 745.573 489.688 748.031C489.688 749.76 489.281 751.354 488.469 752.812C487.677 754.271 486.448 755.542 484.781 756.625C483.135 757.688 481.042 758.521 478.5 759.125C475.979 759.708 472.99 760 469.531 760H468.344C468.302 760.375 468.26 760.792 468.219 761.25C468.198 761.708 468.188 762.135 468.188 762.531C468.188 765.281 468.854 767.438 470.188 769C471.521 770.542 473.521 771.312 476.188 771.312C477.833 771.312 479.385 771.083 480.844 770.625C482.323 770.146 483.865 769.521 485.469 768.75V773.219C483.927 773.927 482.375 774.51 480.812 774.969C479.25 775.406 477.406 775.625 475.281 775.625ZM469.094 755.75H469.844C472.51 755.75 474.958 755.521 477.188 755.062C479.417 754.583 481.208 753.812 482.562 752.75C483.917 751.667 484.594 750.229 484.594 748.438C484.594 747.271 484.198 746.312 483.406 745.562C482.615 744.812 481.406 744.438 479.781 744.438C478.344 744.438 476.927 744.885 475.531 745.781C474.135 746.656 472.865 747.938 471.719 749.625C470.594 751.312 469.719 753.354 469.094 755.75ZM489.281 775L504.188 757.375L496.75 740.75H502L507.5 753.688L517.938 740.75H523.969L509.656 757.594L517.594 775H512.281L506.281 761.375L495.312 775H489.281ZM533.938 775.625C531.667 775.625 529.771 775.083 528.25 774C526.75 772.896 526 771.01 526 768.344C526 767.698 526.042 767 526.125 766.25C526.208 765.479 526.344 764.688 526.531 763.875L530.562 744.719H525.281L525.781 742.312L531.469 740.125L535.219 732.875H538.312L536.594 740.75H545.406L544.594 744.719H535.812L531.75 763.938C531.604 764.521 531.469 765.146 531.344 765.812C531.24 766.479 531.188 767.115 531.188 767.719C531.188 768.76 531.458 769.635 532 770.344C532.542 771.031 533.448 771.375 534.719 771.375C535.51 771.375 536.26 771.302 536.969 771.156C537.698 771.01 538.469 770.802 539.281 770.531V774.531C538.76 774.781 537.969 775.021 536.906 775.25C535.865 775.5 534.875 775.625 533.938 775.625ZM537.688 784.969L538.562 780.875H563.781L562.906 784.969H537.688Z" fill="#C7773C"/>
<g filter="url(#filter0_d_1_120)">
<path d="M323.183 240.843C323.809 240.843 324.399 241.136 324.777 241.635L393.076 331.831L464.735 241.599C465.115 241.121 465.691 240.843 466.301 240.843H523.832C524.937 240.843 525.832 241.738 525.832 242.843V468C525.832 469.104 524.936 470 523.832 470H467.299C466.209 470 465.319 469.127 465.299 468.037L462.814 335.201L394.65 416.725C393.838 417.697 392.338 417.678 391.55 416.686L324.177 331.831V468C324.177 469.104 323.281 470 322.177 470H264C262.896 470 262 469.104 262 468V242.843C262 241.738 262.895 240.843 264 240.843H323.183ZM696.919 240C698.024 240 698.919 240.895 698.919 242V361.318H757.961C761.429 361.318 763.254 365.431 760.927 368.003L669.319 469.197C668.523 470.077 667.141 470.074 666.349 469.191L575.513 367.99C573.201 365.415 575.029 361.318 578.489 361.318H637.582V242C637.582 240.896 638.478 240 639.582 240H696.919Z" fill="url(#paint1_linear_1_120)"/>
</g>
<path d="M510.5 43C537.65 43 560.689 60.5929 568.843 85H659V170C659 181.046 650.046 190 639 190H381C369.954 190 361 181.046 361 170V85H452.157C460.311 60.5929 483.35 43 510.5 43ZM510.5 83C498.626 83 489 92.6259 489 104.5C489 116.374 498.626 126 510.5 126C522.374 126 532 116.374 532 104.5C532 92.6259 522.374 83 510.5 83Z" fill="url(#paint2_linear_1_120)"/>
<path d="M450 460C450 429.624 474.624 405 505 405H854V938H450V460Z" fill="#818385" fill-opacity="0.15"/>
<path d="M460 470C460 439.624 484.624 415 515 415H854V938H460V470Z" fill="#818385" fill-opacity="0.15"/>
<path d="M470 489C470 453.654 498.654 425 534 425H846C881.346 425 910 453.654 910 489V926C910 961.346 881.346 990 846 990H534C498.654 990 470 961.346 470 926V489Z" fill="url(#paint3_linear_1_120)"/>
<path d="M470 937.212V893.753H507.148V937.212C507.148 945.867 514.171 952.883 522.833 952.883V990C493.654 990 470 966.366 470 937.212ZM570.272 952.883V990H522.833V952.883H570.272ZM737.439 952.883V990H642.561V952.883H737.439ZM857.167 952.883V990H809.728V952.883H857.167ZM910 937.212C910 966.138 886.714 989.631 857.85 989.996L857.167 990V952.883C865.829 952.883 872.852 945.867 872.852 937.212V893.753H910V937.212ZM507.148 740.612V827.529H470V740.612H507.148ZM910 740.612V827.529H872.852V740.612H910ZM507.148 587.471V674.388H470V587.471H507.148ZM910 587.471V674.388H872.852V587.471H910ZM470 477.788C470 448.634 493.654 425 522.833 425H570.272V462.117H522.833C514.171 462.117 507.148 469.133 507.148 477.788V521.248H470V477.788ZM910 521.248H872.852V477.788C872.852 469.133 865.829 462.117 857.167 462.117H809.728V425H857.167L857.85 425.004C886.714 425.369 910 448.862 910 477.788V521.248ZM737.439 425V462.117H642.561V425H737.439Z" fill="#1A9BDF"/>
<path d="M688.836 578.416C723.059 578.416 755.881 592 780.08 616.179C794.411 630.497 805.017 647.838 811.288 666.7H821.373C827.171 666.7 831.871 671.397 831.871 677.19V738.376C831.871 744.169 827.171 748.865 821.373 748.865H810.996C810.1 751.499 809.12 754.108 808.052 756.685C801.567 772.327 792.063 786.541 780.08 798.513C768.098 810.485 753.873 819.982 738.217 826.461C722.562 832.94 705.782 836.275 688.836 836.275C671.891 836.275 655.111 832.94 639.455 826.461C623.8 819.982 609.574 810.485 597.592 798.513C585.61 786.541 576.104 772.327 569.62 756.685C568.551 754.108 567.571 751.499 566.675 748.865H558.922C553.124 748.865 548.424 744.169 548.424 738.376V677.19C548.424 671.397 553.124 666.7 558.922 666.7H566.382C572.654 647.838 583.262 630.497 597.592 616.179C621.792 592 654.613 578.416 688.836 578.416ZM647.642 785.569C637.551 788.818 628.424 793.189 620.712 798.495C634.503 808.785 650.437 815.804 667.294 819.05C659.475 811.543 652.809 799.985 647.642 785.569ZM730.439 784.409C725.217 799.366 718.403 811.342 710.374 819.05C728.036 815.65 744.685 808.108 758.916 797.002C750.668 791.707 741.016 787.449 730.439 784.409ZM690.929 779.019C681.08 779.019 671.492 779.97 662.426 781.761C669.562 801.399 679.179 813.522 688.835 813.523C698.61 813.522 708.34 801.101 715.502 781.038C707.602 779.713 699.356 779.019 690.929 779.019ZM582.837 748.865C588.508 763.317 597.128 776.598 608.327 787.787C608.645 788.105 608.965 788.421 609.286 788.735C618.787 781.357 630.349 775.419 643.23 771.193C641.406 764.189 639.89 756.713 638.705 748.865H582.837ZM738.964 748.865C737.848 756.261 736.434 763.326 734.748 769.979C746.17 773.353 756.669 778.052 765.767 783.911C767.268 784.869 768.742 785.876 770.19 786.93C780.977 775.922 789.309 762.951 794.835 748.865H738.964ZM654.145 748.865C655.201 755.348 656.488 761.495 657.967 767.233C668.455 765.002 679.552 763.826 690.929 763.826C700.868 763.826 710.6 764.722 719.907 766.44C721.3 760.929 722.518 755.05 723.526 748.865H654.145ZM560.672 736.628H819.624V678.938H560.672V736.628ZM598.411 708.014C598.523 708.513 598.67 709.225 598.855 710.149C599.058 711.056 599.263 712.054 599.466 713.146C599.688 714.218 599.891 715.254 600.077 716.253C600.262 717.252 600.392 718.084 600.466 718.75C600.614 717.603 600.809 716.299 601.049 714.838C601.308 713.377 601.586 711.897 601.882 710.399C602.197 708.883 602.492 707.477 602.77 706.183C603.048 704.888 603.289 703.833 603.493 703.02L607.074 687.679H617.237L620.707 703.02C620.893 703.815 621.123 704.87 621.401 706.183C621.697 707.477 621.993 708.883 622.289 710.399C622.604 711.916 622.892 713.414 623.151 714.894C623.41 716.355 623.604 717.64 623.734 718.75C623.845 717.825 624.029 716.66 624.288 715.254C624.548 713.83 624.808 712.453 625.067 711.121C625.344 709.771 625.556 708.754 625.704 708.069L630.203 687.679H640.782L630.786 728.237H617.82L613.932 710.565C613.858 710.233 613.738 709.668 613.572 708.873C613.424 708.078 613.247 707.171 613.043 706.154C612.858 705.137 612.683 704.138 612.516 703.158C612.368 702.16 612.257 701.318 612.183 700.634C612.109 701.318 611.988 702.16 611.822 703.158C611.655 704.138 611.471 705.137 611.267 706.154C611.082 707.171 610.896 708.078 610.711 708.873C610.545 709.668 610.424 710.233 610.35 710.565L606.435 728.237H593.469L583.417 687.679H593.996L598.411 708.014ZM676.83 708.014C676.941 708.513 677.09 709.225 677.275 710.149C677.478 711.056 677.683 712.054 677.886 713.146C678.108 714.218 678.311 715.254 678.496 716.253C678.682 717.252 678.811 718.084 678.885 718.75C679.033 717.603 679.228 716.299 679.469 714.838C679.728 713.377 680.006 711.897 680.302 710.399C680.617 708.883 680.912 707.477 681.19 706.183C681.467 704.888 681.709 703.833 681.912 703.02L685.494 687.679H695.657L699.127 703.02C699.312 703.815 699.543 704.87 699.821 706.183C700.117 707.477 700.413 708.883 700.709 710.399C701.024 711.916 701.312 713.414 701.571 714.894C701.83 716.355 702.024 717.64 702.154 718.75C702.265 717.825 702.449 716.66 702.708 715.254C702.968 713.83 703.227 712.452 703.486 711.12C703.763 709.771 703.976 708.754 704.124 708.069L708.622 687.679H719.202L709.205 728.237H696.24L692.352 710.565C692.278 710.233 692.157 709.668 691.991 708.873C691.843 708.078 691.667 707.171 691.463 706.154C691.278 705.137 691.102 704.138 690.936 703.158C690.788 702.16 690.677 701.318 690.603 700.634C690.529 701.318 690.408 702.16 690.242 703.158C690.075 704.138 689.89 705.137 689.687 706.154C689.502 707.171 689.316 708.078 689.131 708.873C688.965 709.668 688.844 710.233 688.77 710.565L684.855 728.237H671.889L661.837 687.679H672.416L676.83 708.014ZM755.25 708.014C755.361 708.513 755.51 709.225 755.695 710.149C755.898 711.056 756.101 712.054 756.305 713.146C756.527 714.218 756.731 715.254 756.916 716.253C757.101 717.252 757.231 718.084 757.305 718.75C757.453 717.603 757.647 716.299 757.888 714.838C758.147 713.377 758.425 711.897 758.721 710.399C759.036 708.883 759.332 707.477 759.61 706.183C759.887 704.888 760.128 703.833 760.331 703.02L763.913 687.679H774.076L777.546 703.02C777.731 703.815 777.963 704.87 778.241 706.183C778.537 707.477 778.833 708.883 779.129 710.399C779.444 711.916 779.73 713.414 779.99 714.894C780.249 716.355 780.443 717.64 780.573 718.75C780.684 717.825 780.869 716.66 781.128 715.254C781.387 713.83 781.647 712.452 781.906 711.12C782.183 709.771 782.396 708.754 782.544 708.069L787.042 687.679H797.621L787.625 728.237H774.659L770.772 710.565C770.698 710.233 770.577 709.668 770.411 708.873C770.262 708.078 770.087 707.171 769.883 706.154C769.698 705.137 769.522 704.138 769.356 703.158C769.208 702.16 769.096 701.318 769.022 700.634C768.948 701.318 768.828 702.16 768.661 703.158C768.495 704.138 768.309 705.137 768.106 706.154C767.921 707.171 767.736 708.078 767.551 708.873C767.385 709.668 767.264 710.233 767.19 710.565L763.275 728.237H750.308L740.257 687.679H750.835L755.25 708.014ZM608.327 626.904C596.903 638.318 588.161 651.91 582.498 666.7H638.575C639.776 658.537 641.338 650.77 643.228 643.509C630.347 639.282 618.786 633.341 609.286 625.956C608.964 626.27 608.645 626.586 608.327 626.904ZM657.961 647.47C656.418 653.462 655.083 659.9 654.002 666.7H723.668C722.635 660.2 721.368 654.03 719.91 648.265C710.602 649.983 700.87 650.88 690.929 650.88C679.55 650.88 668.451 649.702 657.961 647.47ZM770.187 627.757C768.76 628.792 767.287 629.802 765.767 630.78C756.671 636.646 746.173 641.346 734.753 644.723C736.504 651.634 737.961 658.99 739.096 666.7H795.174C789.651 652.275 781.198 638.993 770.187 627.757ZM688.835 601.168C679.176 601.168 669.557 613.297 662.419 632.943C671.488 634.735 681.077 635.688 690.929 635.688C699.358 635.688 707.606 634.991 715.508 633.663C708.345 613.594 698.612 601.168 688.835 601.168ZM710.375 595.64C718.405 603.348 725.221 615.328 730.444 630.288C741.023 627.245 750.677 622.987 758.927 617.696C744.694 606.586 728.041 599.041 710.375 595.64ZM667.294 595.64C650.433 598.886 634.494 605.909 620.702 616.202C628.414 621.511 637.542 625.885 647.635 629.135C652.803 614.713 659.472 603.149 667.294 595.64Z" fill="#7A8385"/>
<defs>
<filter id="filter0_d_1_120" x="262" y="240" width="502.969" height="234" filterUnits="userSpaceOnUse" color-interpolation-filters="sRGB">
<feFlood flood-opacity="0" result="BackgroundImageFix"/>
<feColorMatrix in="SourceAlpha" type="matrix" values="0 0 0 0 0 0 0 0 0 0 0 0 0 0 0 0 0 0 127 0" result="hardAlpha"/>
<feOffset dx="3" dy="4"/>
<feComposite in2="hardAlpha" operator="out"/>
<feColorMatrix type="matrix" values="0 0 0 0 0 0 0 0 0 0 0 0 0 0 0 0 0 0 0.25 0"/>
<feBlend mode="normal" in2="BackgroundImageFix" result="effect1_dropShadow_1_120"/>
<feBlend mode="normal" in="SourceGraphic" in2="effect1_dropShadow_1_120" result="shape"/>
</filter>
<linearGradient id="paint0_linear_1_120" x1="512" y1="85" x2="512" y2="938" gradientUnits="userSpaceOnUse">
<stop stop-color="#C6763D"/>
<stop offset="1" stop-color="#C7773C"/>
</linearGradient>
<linearGradient id="paint1_linear_1_120" x1="511.984" y1="240" x2="511.984" y2="470" gradientUnits="userSpaceOnUse">
<stop stop-color="#3890D1"/>
<stop offset="1" stop-color="#036FBA"/>
</linearGradient>
<linearGradient id="paint2_linear_1_120" x1="510" y1="43" x2="510" y2="190" gradientUnits="userSpaceOnUse">
<stop stop-color="#A1A7B3"/>
<stop offset="1" stop-color="#C5CDDA"/>
</linearGradient>
<linearGradient id="paint3_linear_1_120" x1="690" y1="425" x2="690" y2="990" gradientUnits="userSpaceOnUse">
<stop stop-color="#CFDFDF"/>
<stop offset="1" stop-color="#C2CECE"/>
</linearGradient>
</defs>
</svg>
